<svg width="41" height="44" viewBox="0 0 41 44" fill="none" xmlns="http://www.w3.org/2000/svg">
<g id="&#240;&#159;&#166;&#134; icon &#34;search&#34;">
<path id="Vector" d="M38.8747 34.9996L32.0755 27.6038L26.8457 25.2535C28.587 22.5599 29.52 19.3463 29.5166 16.0534C29.5166 7.20149 22.8961 0 14.7583 0C6.62052 0 0 7.20149 0 16.0534C0 24.9053 6.62052 32.1067 14.7583 32.1067C17.812 32.1105 20.7907 31.0782 23.2795 29.1536L25.4345 34.827L32.2335 42.2232C32.6695 42.6975 33.1872 43.0738 33.7569 43.3305C34.3266 43.5872 34.9373 43.7194 35.5539 43.7194C36.1706 43.7194 36.7813 43.5873 37.351 43.3306C37.9207 43.074 38.4384 42.6977 38.8745 42.2234C39.3106 41.7491 39.6565 41.186 39.8925 40.5663C40.1285 39.9466 40.25 39.2824 40.25 38.6116C40.25 37.9408 40.1286 37.2766 39.8926 36.6568C39.6566 36.0371 39.3107 35.474 38.8747 34.9996ZM2.68333 16.0534C2.68333 8.81111 8.10029 2.91879 14.7583 2.91879C21.4163 2.91879 26.8333 8.81111 26.8333 16.0534C26.8333 23.2956 21.4163 29.1879 14.7583 29.1879C8.10029 29.1879 2.68333 23.2956 2.68333 16.0534ZM36.9772 40.1593C36.5994 40.5693 36.0877 40.7995 35.5541 40.7995C35.0205 40.7995 34.5087 40.5693 34.131 40.1593L27.7101 33.175L25.7065 27.8998L30.5564 30.0792L36.9773 37.0635C37.3542 37.4744 37.5658 38.0311 37.5657 38.6115C37.5657 39.1918 37.354 39.7485 36.9772 40.1593Z" fill="black"/>
</g>
</svg>
